<svg xmlns="http://www.w3.org/2000/svg" xmlns:xlink="http://www.w3.org/1999/xlink" width="30" zoomAndPan="magnify" viewBox="0 0 30 30.000001" height="30.000001" preserveAspectRatio="xMidYMid meet" version="1.0"><defs><clipPath id="id1"><path d="M 9.195312 8.710938 L 20.804688 8.710938 L 20.804688 20.324219 L 9.195312 20.324219 Z M 9.195312 8.710938 " clip-rule="nonzero"/></clipPath></defs><g clip-path="url(#id1)"><path fill="rgb(13.729858%, 12.159729%, 12.548828%)" d="M 15.523438 14.535156 L 20.660156 9.398438 C 20.804688 9.253906 20.804688 9.019531 20.660156 8.875 C 20.515625 8.730469 20.28125 8.730469 20.136719 8.875 L 15 14.011719 L 9.863281 8.875 C 9.71875 8.730469 9.484375 8.730469 9.339844 8.875 C 9.195312 9.019531 9.195312 9.253906 9.339844 9.398438 L 14.476562 14.535156 L 9.339844 19.671875 C 9.195312 19.816406 9.195312 20.050781 9.339844 20.195312 C 9.414062 20.265625 9.507812 20.304688 9.601562 20.304688 C 9.695312 20.304688 9.789062 20.265625 9.863281 20.195312 L 15 15.058594 L 20.136719 20.195312 C 20.210938 20.265625 20.304688 20.304688 20.398438 20.304688 C 20.492188 20.304688 20.585938 20.265625 20.660156 20.195312 C 20.804688 20.050781 20.804688 19.816406 20.660156 19.671875 Z M 15.523438 14.535156 " fill-opacity="1" fill-rule="nonzero"/></g></svg>