<svg xmlns="http://www.w3.org/2000/svg" xmlns:xlink="http://www.w3.org/1999/xlink" width="30" zoomAndPan="magnify" viewBox="0 0 30 30.000001" height="30.000001" preserveAspectRatio="xMidYMid meet" version="1.0"><defs><clipPath id="id1"><path d="M 9.195312 8.710938 L 20.804688 8.710938 L 20.804688 20.324219 L 9.195312 20.324219 Z M 9.195312 8.710938 " clip-rule="nonzero"/></clipPath></defs><g clip-path="url(#id1)"><path fill="rgb(51.759338%, 51.759338%, 51.759338%)" d="M 20.804688 14.515625 C 20.804688 11.308594 18.207031 8.710938 15 8.710938 C 11.792969 8.710938 9.195312 11.308594 9.195312 14.515625 C 9.195312 17.722656 11.792969 20.324219 15 20.324219 C 18.207031 20.324219 20.804688 17.722656 20.804688 14.515625 Z M 20.804688 14.515625 " fill-opacity="1" fill-rule="nonzero"/></g><path fill="rgb(100%, 100%, 100%)" d="M 12.429688 12.773438 C 12.429688 12.445312 12.535156 12.117188 12.742188 11.78125 C 12.949219 11.449219 13.257812 11.171875 13.65625 10.953125 C 14.058594 10.730469 14.523438 10.621094 15.0625 10.621094 C 15.558594 10.621094 15.996094 10.714844 16.375 10.898438 C 16.757812 11.082031 17.050781 11.332031 17.257812 11.648438 C 17.464844 11.960938 17.570312 12.304688 17.570312 12.675781 C 17.570312 12.96875 17.511719 13.222656 17.390625 13.441406 C 17.273438 13.660156 17.132812 13.847656 16.96875 14.007812 C 16.808594 14.167969 16.515625 14.4375 16.09375 14.8125 C 15.976562 14.917969 15.882812 15.011719 15.8125 15.09375 C 15.742188 15.171875 15.691406 15.25 15.65625 15.3125 C 15.621094 15.382812 15.59375 15.449219 15.574219 15.515625 C 15.558594 15.582031 15.527344 15.699219 15.492188 15.867188 C 15.425781 16.222656 15.222656 16.40625 14.878906 16.40625 C 14.703125 16.40625 14.554688 16.347656 14.429688 16.230469 C 14.308594 16.113281 14.25 15.9375 14.25 15.710938 C 14.25 15.421875 14.292969 15.171875 14.382812 14.960938 C 14.472656 14.75 14.589844 14.566406 14.738281 14.40625 C 14.886719 14.246094 15.085938 14.058594 15.335938 13.835938 C 15.554688 13.644531 15.710938 13.5 15.808594 13.402344 C 15.90625 13.304688 15.988281 13.195312 16.054688 13.074219 C 16.125 12.957031 16.15625 12.824219 16.15625 12.683594 C 16.15625 12.410156 16.054688 12.179688 15.847656 11.988281 C 15.644531 11.800781 15.382812 11.707031 15.0625 11.707031 C 14.683594 11.707031 14.40625 11.800781 14.226562 11.992188 C 14.050781 12.179688 13.898438 12.460938 13.777344 12.832031 C 13.660156 13.21875 13.4375 13.410156 13.113281 13.410156 C 12.921875 13.410156 12.761719 13.34375 12.625 13.207031 C 12.496094 13.078125 12.429688 12.933594 12.429688 12.773438 M 14.9375 18.40625 C 14.730469 18.40625 14.546875 18.339844 14.390625 18.203125 C 14.234375 18.070312 14.15625 17.878906 14.15625 17.636719 C 14.15625 17.421875 14.230469 17.238281 14.382812 17.089844 C 14.535156 16.941406 14.722656 16.871094 14.9375 16.871094 C 15.15625 16.871094 15.335938 16.945312 15.484375 17.089844 C 15.632812 17.238281 15.703125 17.421875 15.703125 17.636719 C 15.703125 17.875 15.628906 18.0625 15.472656 18.203125 C 15.316406 18.339844 15.140625 18.40625 14.9375 18.40625 " fill-opacity="1" fill-rule="nonzero"/></svg>