<svg xmlns="http://www.w3.org/2000/svg" xmlns:xlink="http://www.w3.org/1999/xlink" width="30" zoomAndPan="magnify" viewBox="0 0 30 30.000001" height="30.000001" preserveAspectRatio="xMidYMid meet" version="1.0"><defs><clipPath id="id1"><path d="M 7.621094 7.792969 L 22.136719 7.792969 L 22.136719 21.582031 L 7.621094 21.582031 Z M 7.621094 7.792969 " clip-rule="nonzero"/></clipPath></defs><g clip-path="url(#id1)"><path fill="rgb(51.759338%, 51.759338%, 51.759338%)" d="M 15.53125 7.796875 C 12.949219 7.796875 10.628906 9.355469 9.546875 11.78125 L 7.636719 11.332031 L 9.671875 14.6875 L 12.890625 12.566406 L 11.03125 12.128906 C 11.921875 10.417969 13.636719 9.335938 15.535156 9.335938 C 18.359375 9.335938 20.660156 11.738281 20.660156 14.6875 C 20.660156 17.636719 18.359375 20.035156 15.53125 20.035156 C 15.125 20.035156 14.792969 20.382812 14.792969 20.808594 C 14.792969 21.230469 15.125 21.578125 15.53125 21.578125 C 19.175781 21.578125 22.140625 18.484375 22.140625 14.6875 C 22.140625 10.886719 19.175781 7.796875 15.53125 7.796875 Z M 15.53125 7.796875 " fill-opacity="1" fill-rule="nonzero"/></g><path fill="rgb(51.759338%, 51.759338%, 51.759338%)" d="M 15.53125 9.75 C 15.125 9.75 14.792969 10.09375 14.792969 10.519531 L 14.792969 14.816406 C 14.792969 15.242188 15.125 15.585938 15.53125 15.585938 L 18.101562 15.585938 C 18.511719 15.585938 18.839844 15.242188 18.839844 14.816406 C 18.839844 14.390625 18.511719 14.046875 18.101562 14.046875 L 16.273438 14.046875 L 16.273438 10.519531 C 16.273438 10.09375 15.941406 9.75 15.53125 9.75 Z M 15.53125 9.75 " fill-opacity="1" fill-rule="nonzero"/></svg>