<svg xmlns="http://www.w3.org/2000/svg" width="30" viewBox="0 0 30 30" height="30" version="1.0"><defs><clipPath id="a"><path d="M 7.996094 7.511719 L 21.785156 7.511719 L 21.785156 21.300781 L 7.996094 21.300781 Z M 7.996094 7.511719"/></clipPath></defs><g clip-path="url(#a)"><path fill="#4BBEF2" d="M 14.890625 7.511719 C 11.089844 7.511719 7.996094 10.605469 7.996094 14.40625 C 7.996094 18.210938 11.089844 21.300781 14.890625 21.300781 C 18.691406 21.300781 21.785156 18.210938 21.785156 14.40625 C 21.785156 10.605469 18.691406 7.511719 14.890625 7.511719 Z M 14.890625 20.382812 C 11.597656 20.382812 8.914062 17.703125 8.914062 14.40625 C 8.914062 11.113281 11.597656 8.429688 14.890625 8.429688 C 18.1875 8.429688 20.867188 11.113281 20.867188 14.40625 C 20.867188 17.703125 18.1875 20.382812 14.890625 20.382812 Z M 14.890625 20.382812"/></g><path fill="#4BBEF2" d="M 17.539062 13.949219 L 15.351562 13.949219 L 15.351562 10.125 C 15.351562 9.871094 15.144531 9.664062 14.890625 9.664062 C 14.636719 9.664062 14.429688 9.871094 14.429688 10.125 L 14.429688 14.40625 C 14.429688 14.660156 14.636719 14.867188 14.890625 14.867188 L 17.539062 14.867188 C 17.792969 14.867188 17.996094 14.660156 17.996094 14.40625 C 17.996094 14.152344 17.792969 13.949219 17.539062 13.949219 Z M 17.539062 13.949219"/></svg>