<svg xmlns="http://www.w3.org/2000/svg" width="30" viewBox="0 0 30 30" height="30" version="1.0"><defs><clipPath id="a"><path d="M 5.710938 7.691406 L 17 7.691406 L 17 21.480469 L 5.710938 21.480469 Z M 5.710938 7.691406"/></clipPath><clipPath id="b"><path d="M 5.710938 13 L 24.582031 13 L 24.582031 17 L 5.710938 17 Z M 5.710938 13"/></clipPath></defs><g clip-path="url(#a)"><path fill="#4BBEF2" d="M 16.019531 18.546875 L 9.929688 14.589844 L 16.019531 10.632812 C 16.707031 10.1875 16.902344 9.269531 16.460938 8.582031 C 16.015625 7.890625 15.101562 7.695312 14.417969 8.140625 L 6.40625 13.34375 C 5.980469 13.617188 5.730469 14.082031 5.730469 14.589844 C 5.730469 15.09375 5.980469 15.5625 6.40625 15.835938 L 14.417969 21.039062 C 15.101562 21.484375 16.015625 21.285156 16.460938 20.597656 C 16.902344 19.910156 16.707031 18.992188 16.019531 18.546875"/></g><g clip-path="url(#b)"><path fill="#4BBEF2" d="M 7.207031 16.074219 L 23.09375 16.074219 C 23.90625 16.074219 24.570312 15.410156 24.570312 14.589844 C 24.570312 13.769531 23.90625 13.105469 23.09375 13.105469 L 7.207031 13.105469 C 6.390625 13.105469 5.730469 13.769531 5.730469 14.589844 C 5.730469 15.410156 6.390625 16.074219 7.207031 16.074219"/></g></svg>