<svg xmlns="http://www.w3.org/2000/svg" width="30" viewBox="0 0 30 30" height="30" version="1.0"><defs><clipPath id="a"><path d="M 8 7.257812 L 22 7.257812 L 22 21.773438 L 8 21.773438 Z M 8 7.257812"/></clipPath><clipPath id="b"><path d="M 7.742188 7.257812 L 22.257812 7.257812 L 22.257812 21.773438 L 7.742188 21.773438 Z M 7.742188 7.257812"/></clipPath></defs><g clip-path="url(#a)"><path fill="#4BBEF2" d="M 21.695312 14.515625 C 21.695312 18.214844 18.699219 21.210938 15 21.210938 C 11.300781 21.210938 8.304688 18.214844 8.304688 14.515625 C 8.304688 10.816406 11.300781 7.820312 15 7.820312 C 18.699219 7.820312 21.695312 10.816406 21.695312 14.515625 Z M 21.695312 14.515625"/></g><g clip-path="url(#b)"><path fill="#4BBEF2" d="M 15 21.773438 C 11 21.773438 7.742188 18.519531 7.742188 14.515625 C 7.742188 10.515625 11 7.257812 15 7.257812 C 19.003906 7.257812 22.257812 10.515625 22.257812 14.515625 C 22.257812 18.519531 19.003906 21.773438 15 21.773438 Z M 15 8.382812 C 11.617188 8.382812 8.867188 11.132812 8.867188 14.515625 C 8.867188 17.898438 11.617188 20.648438 15 20.648438 C 18.382812 20.648438 21.132812 17.898438 21.132812 14.515625 C 21.132812 11.132812 18.382812 8.382812 15 8.382812 Z M 15 8.382812"/></g><path fill="#FFF" d="M 14.121094 17.1875 C 13.972656 17.1875 13.828125 17.125 13.722656 17.019531 L 11.648438 14.910156 C 11.429688 14.6875 11.433594 14.332031 11.65625 14.117188 C 11.875 13.898438 12.230469 13.902344 12.449219 14.121094 L 14.105469 15.804688 L 17.535156 12.03125 C 17.746094 11.800781 18.101562 11.785156 18.328125 11.992188 C 18.558594 12.199219 18.574219 12.554688 18.367188 12.785156 L 14.539062 17.003906 C 14.433594 17.117188 14.289062 17.183594 14.132812 17.1875 C 14.128906 17.1875 14.125 17.1875 14.121094 17.1875 Z M 14.121094 17.1875"/></svg>