<svg xmlns="http://www.w3.org/2000/svg" viewBox="0 0 700 200"><defs><style>.cls-1{fill:#292a36;}.cls-2{fill:#fff;}</style></defs><g id="Calque_31" data-name="Calque 31"><rect class="cls-1" width="700" height="200"/></g><g id="Calque_26" data-name="Calque 26"><path class="cls-2" d="M213.4,122.05V58.79a3.28,3.28,0,0,1,3.29-3.28h6.19a3.28,3.28,0,0,1,3.29,3.28v50.89a3.29,3.29,0,0,0,3.29,3.29h22.15a3.29,3.29,0,0,1,3.29,3.29v5.79a3.29,3.29,0,0,1-3.29,3.29H216.69A3.29,3.29,0,0,1,213.4,122.05Z"/><path class="cls-2" d="M273.68,103.09a1.58,1.58,0,0,0-1.53,2c2,7.85,8.37,11.1,14.46,11.1a37,37,0,0,0,13.3-3.1,1.58,1.58,0,0,1,2.2,1.36l.41,7.09a1.59,1.59,0,0,1-.89,1.51,37,37,0,0,1-15.71,3.32c-18.06,0-27-11.87-27-25.84s8.58-25.84,23.94-25.84c12.57,0,21.95,8.48,21.95,21.65a30.14,30.14,0,0,1-.55,5.49,1.57,1.57,0,0,1-1.55,1.29Zm.43-8.38h16.4a1.57,1.57,0,0,0,1.57-1.78c-.55-4-3-8.09-8.86-8.09-5.56,0-9,3.18-10.59,7.76A1.58,1.58,0,0,0,274.11,94.71Z"/><path class="cls-2" d="M355.51,125.06a1.44,1.44,0,0,1-1.42,1.28h-3.21c-4.82,0-8.22-1.71-10.29-4.42a1.42,1.42,0,0,0-2-.22c-3.42,3-8.76,4.64-14.09,4.64-8,0-14.47-5.49-14.47-15,0-13.36,16.83-17.18,26.56-17.78a1.45,1.45,0,0,0,1.33-1.65c-.64-4.57-3.07-6.6-8.83-6.6a27.32,27.32,0,0,0-11.86,2.93,1.43,1.43,0,0,1-2-1.15l-.77-7.05a1.47,1.47,0,0,1,.84-1.47,40.79,40.79,0,0,1,17.21-3.94c11.17,0,18.05,5.59,18.05,20v13.47c0,7.48.8,8,4.39,8h0a1.43,1.43,0,0,1,1.43,1.59Zm-17.4-21.63a1.44,1.44,0,0,0-1.58-1.43c-6.58.63-13.58,3.43-13.58,8.87,0,4.09,2,6,6.68,6a13.45,13.45,0,0,0,8-3.14,1.42,1.42,0,0,0,.5-1.09Z"/><path class="cls-2" d="M389.08,84.91a1.78,1.78,0,0,1-1.74,1.42H384.2a10.4,10.4,0,0,0-8.83,4.54,1.8,1.8,0,0,0-.25.91v31.78a1.78,1.78,0,0,1-1.77,1.78h-8.82a1.78,1.78,0,0,1-1.78-1.78V77.24a1.78,1.78,0,0,1,1.78-1.78h8.11a1.78,1.78,0,0,1,1.78,1.68h0a1.78,1.78,0,0,0,2.83,1.33,18.4,18.4,0,0,1,10.64-3.81H389a1.79,1.79,0,0,1,1.75,2.14Z"/><path class="cls-2" d="M430.3,125.34a1.14,1.14,0,0,1-1.14-1.14V98.5c0-9.27-2.89-13.66-9.87-13.66a11.52,11.52,0,0,0-9.1,4,1.17,1.17,0,0,0-.28.76V124.2a1.14,1.14,0,0,1-1.14,1.14h-10.1a1.14,1.14,0,0,1-1.13-1.14V76.6a1.14,1.14,0,0,1,1.13-1.14h9.38a1.14,1.14,0,0,1,1.13,1.06h0a1.14,1.14,0,0,0,1.7.91,19.41,19.41,0,0,1,9.4-2.77c15.57,0,21.25,9.78,21.25,23.84v25.7a1.14,1.14,0,0,1-1.14,1.14Z"/><path class="cls-2" d="M466.37,149.48h-8.6a1.76,1.76,0,0,1-1.63-2.42L466,122.74a1.72,1.72,0,0,0,0-1.37L446.59,77.93a1.75,1.75,0,0,1,1.61-2.47h9.86a1.77,1.77,0,0,1,1.64,1.11l10.7,26.93a1.76,1.76,0,0,0,3.27,0l10.88-26.95a1.75,1.75,0,0,1,1.63-1.1h9.93a1.76,1.76,0,0,1,1.62,2.44L468,148.41A1.77,1.77,0,0,1,466.37,149.48Z"/><path class="cls-2" d="M505.55,121.79V59.06a3.55,3.55,0,0,1,3.55-3.55h5.67a3.55,3.55,0,0,1,3.55,3.55v50.36a3.55,3.55,0,0,0,3.55,3.55H543.5a3.55,3.55,0,0,1,3.55,3.55v5.27a3.55,3.55,0,0,1-3.55,3.55H509.1A3.55,3.55,0,0,1,505.55,121.79Z"/><path class="cls-2" d="M554.11,65.61V57.78a2.27,2.27,0,0,1,2.27-2.27h7.83a2.26,2.26,0,0,1,2.27,2.27v7.83a2.27,2.27,0,0,1-2.27,2.27h-7.83A2.27,2.27,0,0,1,554.11,65.61Zm0,57.46V77.73a2.27,2.27,0,0,1,2.27-2.27h7.83a2.27,2.27,0,0,1,2.27,2.27v45.34a2.27,2.27,0,0,1-2.27,2.27h-7.83A2.27,2.27,0,0,1,554.11,123.07Z"/><path class="cls-2" d="M587,124.35h0a1.07,1.07,0,0,1-1.07,1h-9.51a1.07,1.07,0,0,1-1.07-1.07V51.59a1.07,1.07,0,0,1,1.07-1.07H586.7a1.06,1.06,0,0,1,1.06,1.07V76.06a1.07,1.07,0,0,0,1.58.94,19.83,19.83,0,0,1,10.1-2.34c16,0,24.44,11.87,24.44,25.84s-8.48,25.84-24.44,25.84a19.32,19.32,0,0,1-10.78-2.83A1.07,1.07,0,0,0,587,124.35Zm.13-23.85c0,9.28,3.49,15.66,11.47,15.66s12.57-6.38,12.57-15.66-4.59-15.66-12.57-15.66S587.17,91.22,587.17,100.5Z"/><path class="cls-2" d="M79.4,55h79.44a3.28,3.28,0,0,1,3.28,3.28V67.4a3.28,3.28,0,0,1-3.28,3.28H94.63A3.26,3.26,0,0,0,91.36,74v28.83a3.28,3.28,0,0,1-3.28,3.28H79.4a3.28,3.28,0,0,1-3.28-3.28V58.23A3.28,3.28,0,0,1,79.4,55Z"/><path class="cls-2" d="M159,125.55H79.2a3.08,3.08,0,0,1-3.08-3.08v-9.56a3.08,3.08,0,0,1,3.08-3.08h64.6a3.08,3.08,0,0,0,3.08-3.08V77.53A3.08,3.08,0,0,1,150,74.45H159a3.08,3.08,0,0,1,3.08,3.08v44.94A3.08,3.08,0,0,1,159,125.55Z"/></g></svg>